<svg xmlns="http://www.w3.org/2000/svg" viewBox="0 0 800 800"><defs><clipPath id="b"><path d="M0 0h66.667v800H0zM133.333 0H200v800h-66.667zM266.667 0h66.667v800h-66.667zM400 0h66.667v800H400zM533.333 0H600v800h-66.667zM666.667 0h66.667v800h-66.667zM800 0h66.667v800H800zM933.333 0H1000v800h-66.667zM1066.667 0h66.667v800h-66.667zM1200 0h66.667v800H1200zM1333.333 0H1400v800h-66.667zM1466.667 0h66.667v800h-66.667zM1600 0h66.667v800H1600z"/></clipPath><clipPath id="c"><path d="M66.667 0h66.667v800H66.667zM200 0h66.667v800H200zM333.333 0H400v800h-66.667zM466.667 0h66.667v800h-66.667zM600 0h66.667v800H600zM733.333 0H800v800h-66.667zM866.667 0h66.667v800h-66.667zM1000 0h66.667v800H1000zM1133.333 0H1200v800h-66.667zM1266.667 0h66.667v800h-66.667zM1400 0h66.667v800H1400zM1533.333 0H1600v800h-66.667z"/></clipPath><linearGradient id="a" x1="50%" x2="50%" y1="0%" y2="100%"><stop offset="45%" stop-color="hsl(184, 74%, 44%)"/><stop offset="100%" stop-color="hsl(332, 87%, 70%)"/></linearGradient></defs><g fill="none" stroke="url(#a)" stroke-width="45"><circle cx="400" cy="400" r="365" clip-path="url(&quot;#b&quot;)" opacity=".25"/><circle cx="400" cy="400" r="265" clip-path="url(&quot;#b&quot;)" opacity=".25"/><circle cx="400" cy="400" r="165" clip-path="url(&quot;#b&quot;)" opacity=".25"/><circle cx="400" cy="400" r="65" clip-path="url(&quot;#b&quot;)" opacity=".25"/><circle cx="400" cy="400" r="377.5" clip-path="url(&quot;#c&quot;)"/><circle cx="400" cy="400" r="277.5" clip-path="url(&quot;#c&quot;)"/><circle cx="400" cy="400" r="177.5" clip-path="url(&quot;#c&quot;)"/><circle cx="400" cy="400" r="77.5" clip-path="url(&quot;#c&quot;)"/></g></svg>