<svg width="633.725px" height="158.4000030517578px" xmlns="http://www.w3.org/2000/svg" viewBox="-66.86250000000001 -4.200001525878903 633.725 158.4000030517578" style="background: none;" preserveAspectRatio="xMidYMid"><defs><filter id="editing-hover" x="-100%" y="-100%" width="300%" height="300%"><feFlood flood-color="#e96f00" result="flood"></feFlood><feComposite operator="in" in2="SourceAlpha" in="flood" result="shadow"></feComposite><feOffset dx="0.1" dy="2" in="SourceGraphic" result="offset-1"></feOffset><feOffset dx="-0.1" dy="-2" in="shadow" result="offset-2"></feOffset><feMerge><feMergeNode in="offset-2"></feMergeNode><feMergeNode in="offset-1"></feMergeNode></feMerge></filter></defs><g filter="url(#editing-hover)"><g transform="translate(23.309978485107422, 96.69499778747559)"><path d="M38.85-34.05L38.85-0.26L38.85-0.26Q38.14-0.06 36.64 0.13L36.64 0.13L36.64 0.13Q35.14 0.32 33.66 0.32L33.66 0.32L33.66 0.32Q32.19 0.32 31.07 0.10L31.07 0.10L31.07 0.10Q29.95-0.13 29.18-0.70L29.18-0.70L29.18-0.70Q28.42-1.28 28.03-2.30L28.03-2.30L28.03-2.30Q27.65-3.33 27.65-4.99L27.65-4.99L27.65-14.98L15.36-14.98L15.36-0.26L15.36-0.26Q14.66-0.06 13.15 0.13L13.15 0.13L13.15 0.13Q11.65 0.32 10.18 0.32L10.18 0.32L10.18 0.32Q8.70 0.32 7.58 0.10L7.58 0.10L7.58 0.10Q6.46-0.13 5.70-0.70L5.70-0.70L5.70-0.70Q4.93-1.28 4.54-2.30L4.54-2.30L4.54-2.30Q4.16-3.33 4.16-4.99L4.16-4.99L4.16-38.78L4.16-38.78Q4.86-38.91 6.40-39.14L6.40-39.14L6.40-39.14Q7.94-39.36 9.34-39.36L9.34-39.36L9.34-39.36Q10.82-39.36 11.94-39.14L11.94-39.14L11.94-39.14Q13.06-38.91 13.82-38.34L13.82-38.34L13.82-38.34Q14.59-37.76 14.98-36.74L14.98-36.74L14.98-36.74Q15.36-35.71 15.36-34.05L15.36-34.05L15.36-23.81L27.65-23.81L27.65-38.78L27.65-38.78Q28.35-38.91 29.89-39.14L29.89-39.14L29.89-39.14Q31.42-39.36 32.83-39.36L32.83-39.36L32.83-39.36Q34.30-39.36 35.42-39.14L35.42-39.14L35.42-39.14Q36.54-38.91 37.31-38.34L37.31-38.34L37.31-38.34Q38.08-37.76 38.46-36.74L38.46-36.74L38.46-36.74Q38.85-35.71 38.85-34.05L38.85-34.05ZM78.53-15.55L78.53-15.55L78.53-15.55Q78.53-11.58 77.31-8.48L77.31-8.48L77.31-8.48Q76.10-5.38 73.89-3.26L73.89-3.26L73.89-3.26Q71.68-1.15 68.61-0.06L68.61-0.06L68.61-0.06Q65.54 1.02 61.76 1.02L61.76 1.02L61.76 1.02Q57.98 1.02 54.91-0.13L54.91-0.13L54.91-0.13Q51.84-1.28 49.63-3.42L49.63-3.42L49.63-3.42Q47.42-5.57 46.21-8.64L46.21-8.64L46.21-8.64Q44.99-11.71 44.99-15.55L44.99-15.55L44.99-15.55Q44.99-19.33 46.21-22.40L46.21-22.40L46.21-22.40Q47.42-25.47 49.63-27.62L49.63-27.62L49.63-27.62Q51.84-29.76 54.91-30.91L54.91-30.91L54.91-30.91Q57.98-32.06 61.76-32.06L61.76-32.06L61.76-32.06Q65.54-32.06 68.61-30.88L68.61-30.88L68.61-30.88Q71.68-29.70 73.89-27.55L73.89-27.55L73.89-27.55Q76.10-25.41 77.31-22.34L77.31-22.34L77.31-22.34Q78.53-19.26 78.53-15.55ZM56.13-15.55L56.13-15.55L56.13-15.55Q56.13-11.65 57.63-9.57L57.63-9.57L57.63-9.57Q59.14-7.49 61.82-7.49L61.82-7.49L61.82-7.49Q64.51-7.49 65.95-9.60L65.95-9.60L65.95-9.60Q67.39-11.71 67.39-15.55L67.39-15.55L67.39-15.55Q67.39-19.39 65.92-21.47L65.92-21.47L65.92-21.47Q64.45-23.55 61.76-23.55L61.76-23.55L61.76-23.55Q59.07-23.55 57.60-21.47L57.60-21.47L57.60-21.47Q56.13-19.39 56.13-15.55ZM110.08-9.28L110.08-9.28L110.08-9.28Q110.08-4.42 106.43-1.66L106.43-1.66L106.43-1.66Q102.78 1.09 95.68 1.09L95.68 1.09L95.68 1.09Q92.99 1.09 90.69 0.70L90.69 0.70L90.69 0.70Q88.38 0.32 86.75-0.48L86.75-0.48L86.75-0.48Q85.12-1.28 84.19-2.50L84.19-2.50L84.19-2.50Q83.26-3.71 83.26-5.38L83.26-5.38L83.26-5.38Q83.26-6.91 83.90-7.97L83.90-7.97L83.90-7.97Q84.54-9.02 85.44-9.73L85.44-9.73L85.44-9.73Q87.30-8.70 89.70-7.90L89.70-7.90L89.70-7.90Q92.10-7.10 95.23-7.10L95.23-7.10L95.23-7.10Q97.22-7.10 98.27-7.68L98.27-7.68L98.27-7.68Q99.33-8.26 99.33-9.22L99.33-9.22L99.33-9.22Q99.33-10.11 98.56-10.62L98.56-10.62L98.56-10.62Q97.79-11.14 96-11.46L96-11.46L94.08-11.84L94.08-11.84Q88.51-12.93 85.79-15.26L85.79-15.26L85.79-15.26Q83.07-17.60 83.07-21.95L83.07-21.95L83.07-21.95Q83.07-24.32 84.10-26.24L84.10-26.24L84.10-26.24Q85.12-28.16 86.98-29.44L86.98-29.44L86.98-29.44Q88.83-30.72 91.42-31.42L91.42-31.42L91.42-31.42Q94.02-32.13 97.15-32.13L97.15-32.13L97.15-32.13Q99.52-32.13 101.60-31.78L101.60-31.78L101.60-31.78Q103.68-31.42 105.22-30.72L105.22-30.72L105.22-30.72Q106.75-30.02 107.65-28.90L107.65-28.90L107.65-28.90Q108.54-27.78 108.54-26.24L108.54-26.24L108.54-26.24Q108.54-24.77 108-23.71L108-23.71L108-23.71Q107.46-22.66 106.62-21.95L106.62-21.95L106.62-21.95Q106.11-22.27 105.09-22.62L105.09-22.62L105.09-22.62Q104.06-22.98 102.85-23.26L102.85-23.26L102.85-23.26Q101.63-23.55 100.38-23.74L100.38-23.74L100.38-23.74Q99.14-23.94 98.11-23.94L98.11-23.94L98.11-23.94Q96-23.94 94.85-23.46L94.85-23.46L94.85-23.46Q93.70-22.98 93.70-21.95L93.70-21.95L93.70-21.95Q93.70-21.25 94.34-20.80L94.34-20.80L94.34-20.80Q94.98-20.35 96.77-19.97L96.77-19.97L98.75-19.52L98.75-19.52Q104.90-18.11 107.49-15.65L107.49-15.65L107.49-15.65Q110.08-13.18 110.08-9.28ZM141.57-9.28L141.57-9.28L141.57-9.28Q141.57-4.42 137.92-1.66L137.92-1.66L137.92-1.66Q134.27 1.09 127.17 1.09L127.17 1.09L127.17 1.09Q124.48 1.09 122.18 0.70L122.18 0.70L122.18 0.70Q119.87 0.32 118.24-0.48L118.24-0.48L118.24-0.48Q116.61-1.28 115.68-2.50L115.68-2.50L115.68-2.50Q114.75-3.71 114.75-5.38L114.75-5.38L114.75-5.38Q114.75-6.91 115.39-7.97L115.39-7.97L115.39-7.97Q116.03-9.02 116.93-9.73L116.93-9.73L116.93-9.73Q118.78-8.70 121.18-7.90L121.18-7.90L121.18-7.90Q123.58-7.10 126.72-7.10L126.72-7.10L126.72-7.10Q128.70-7.10 129.76-7.68L129.76-7.68L129.76-7.68Q130.82-8.26 130.82-9.22L130.82-9.22L130.82-9.22Q130.82-10.11 130.05-10.62L130.05-10.62L130.05-10.62Q129.28-11.14 127.49-11.46L127.49-11.46L125.57-11.84L125.57-11.84Q120-12.93 117.28-15.26L117.28-15.26L117.28-15.26Q114.56-17.60 114.56-21.95L114.56-21.95L114.56-21.95Q114.56-24.32 115.58-26.24L115.58-26.24L115.58-26.24Q116.61-28.16 118.46-29.44L118.46-29.44L118.46-29.44Q120.32-30.72 122.91-31.42L122.91-31.42L122.91-31.42Q125.50-32.13 128.64-32.13L128.64-32.13L128.64-32.13Q131.01-32.13 133.09-31.78L133.09-31.78L133.09-31.78Q135.17-31.42 136.70-30.72L136.70-30.72L136.70-30.72Q138.24-30.02 139.14-28.90L139.14-28.90L139.14-28.90Q140.03-27.78 140.03-26.24L140.03-26.24L140.03-26.24Q140.03-24.77 139.49-23.71L139.49-23.71L139.49-23.71Q138.94-22.66 138.11-21.95L138.11-21.95L138.11-21.95Q137.60-22.27 136.58-22.62L136.58-22.62L136.58-22.62Q135.55-22.98 134.34-23.26L134.34-23.26L134.34-23.26Q133.12-23.55 131.87-23.74L131.87-23.74L131.87-23.74Q130.62-23.94 129.60-23.94L129.60-23.94L129.60-23.94Q127.49-23.94 126.34-23.46L126.34-23.46L126.34-23.46Q125.18-22.98 125.18-21.95L125.18-21.95L125.18-21.95Q125.18-21.25 125.82-20.80L125.82-20.80L125.82-20.80Q126.46-20.35 128.26-19.97L128.26-19.97L130.24-19.52L130.24-19.52Q136.38-18.11 138.98-15.65L138.98-15.65L138.98-15.65Q141.57-13.18 141.57-9.28ZM160.13-6.91L160.13-6.91L160.13-6.91Q161.22-6.91 162.53-7.14L162.53-7.14L162.53-7.14Q163.84-7.36 164.48-7.74L164.48-7.74L164.48-12.86L159.87-12.48L159.87-12.48Q158.08-12.35 156.93-11.71L156.93-11.71L156.93-11.71Q155.78-11.07 155.78-9.79L155.78-9.79L155.78-9.79Q155.78-8.51 156.77-7.71L156.77-7.71L156.77-7.71Q157.76-6.91 160.13-6.91ZM159.62-32.06L159.62-32.06L159.62-32.06Q163.07-32.06 165.92-31.36L165.92-31.36L165.92-31.36Q168.77-30.66 170.78-29.22L170.78-29.22L170.78-29.22Q172.80-27.78 173.89-25.57L173.89-25.57L173.89-25.57Q174.98-23.36 174.98-20.35L174.98-20.35L174.98-6.02L174.98-6.02Q174.98-4.35 174.05-3.30L174.05-3.30L174.05-3.30Q173.12-2.24 171.84-1.47L171.84-1.47L171.84-1.47Q167.68 1.02 160.13 1.02L160.13 1.02L160.13 1.02Q156.74 1.02 154.02 0.38L154.02 0.38L154.02 0.38Q151.30-0.26 149.34-1.54L149.34-1.54L149.34-1.54Q147.39-2.82 146.34-4.80L146.34-4.80L146.34-4.80Q145.28-6.78 145.28-9.41L145.28-9.41L145.28-9.41Q145.28-13.82 147.90-16.19L147.90-16.19L147.90-16.19Q150.53-18.56 156.03-19.14L156.03-19.14L164.42-20.03L164.42-20.48L164.42-20.48Q164.42-22.34 162.78-23.14L162.78-23.14L162.78-23.14Q161.15-23.94 158.08-23.94L158.08-23.94L158.08-23.94Q155.65-23.94 153.34-23.42L153.34-23.42L153.34-23.42Q151.04-22.91 149.18-22.14L149.18-22.14L149.18-22.14Q148.35-22.72 147.78-23.90L147.78-23.90L147.78-23.90Q147.20-25.09 147.20-26.37L147.20-26.37L147.20-26.37Q147.20-28.03 148-29.02L148-29.02L148-29.02Q148.80-30.02 150.46-30.72L150.46-30.72L150.46-30.72Q152.32-31.42 154.85-31.74L154.85-31.74L154.85-31.74Q157.38-32.06 159.62-32.06ZM196.54-32.06L196.54-32.06L196.54-32.06Q199.17-32.06 201.70-31.33L201.70-31.33L201.70-31.33Q204.22-30.59 206.08-29.12L206.08-29.12L206.08-29.12Q208-30.40 210.40-31.23L210.40-31.23L210.40-31.23Q212.80-32.06 216.19-32.06L216.19-32.06L216.19-32.06Q218.62-32.06 220.96-31.42L220.96-31.42L220.96-31.42Q223.30-30.78 225.12-29.41L225.12-29.41L225.12-29.41Q226.94-28.03 228.03-25.76L228.03-25.76L228.03-25.76Q229.12-23.49 229.12-20.22L229.12-20.22L229.12-0.06L229.12-0.06Q228.48 0.13 227.10 0.32L227.10 0.32L227.10 0.32Q225.73 0.51 224.26 0.51L224.26 0.51L224.26 0.51Q222.85 0.51 221.73 0.32L221.73 0.32L221.73 0.32Q220.61 0.13 219.84-0.45L219.84-0.45L219.84-0.45Q219.07-1.02 218.66-2.02L218.66-2.02L218.66-2.02Q218.24-3.01 218.24-4.61L218.24-4.61L218.24-19.90L218.24-19.90Q218.24-21.82 217.15-22.69L217.15-22.69L217.15-22.69Q216.06-23.55 214.21-23.55L214.21-23.55L214.21-23.55Q213.31-23.55 212.29-23.14L212.29-23.14L212.29-23.14Q211.26-22.72 210.75-22.27L210.75-22.27L210.75-22.27Q210.82-22.02 210.82-21.79L210.82-21.79L210.82-21.79Q210.82-21.57 210.82-21.38L210.82-21.38L210.82-0.06L210.82-0.06Q210.11 0.13 208.74 0.32L208.74 0.32L208.74 0.32Q207.36 0.51 205.95 0.51L205.95 0.51L205.95 0.51Q204.54 0.51 203.42 0.32L203.42 0.32L203.42 0.32Q202.30 0.13 201.54-0.45L201.54-0.45L201.54-0.45Q200.77-1.02 200.35-2.02L200.35-2.02L200.35-2.02Q199.94-3.01 199.94-4.61L199.94-4.61L199.94-19.90L199.94-19.90Q199.94-21.82 198.75-22.69L198.75-22.69L198.75-22.69Q197.57-23.55 195.90-23.55L195.90-23.55L195.90-23.55Q194.75-23.55 193.92-23.20L193.92-23.20L193.92-23.20Q193.09-22.85 192.51-22.53L192.51-22.53L192.51-0.06L192.51-0.06Q191.87 0.13 190.50 0.32L190.50 0.32L190.50 0.32Q189.12 0.51 187.65 0.51L187.65 0.51L187.65 0.51Q186.24 0.51 185.12 0.32L185.12 0.32L185.12 0.32Q184 0.13 183.23-0.45L183.23-0.45L183.23-0.45Q182.46-1.02 182.05-2.02L182.05-2.02L182.05-2.02Q181.63-3.01 181.63-4.61L181.63-4.61L181.63-23.94L181.63-23.94Q181.63-25.66 182.37-26.69L182.37-26.69L182.37-26.69Q183.10-27.71 184.38-28.61L184.38-28.61L184.38-28.61Q186.56-30.14 189.79-31.10L189.79-31.10L189.79-31.10Q193.02-32.06 196.54-32.06ZM257.66-37.63L257.66-37.63L257.66-37.63Q258.75-38.27 260.96-38.85L260.96-38.85L260.96-38.85Q263.17-39.42 265.41-39.42L265.41-39.42L265.41-39.42Q268.61-39.42 271.07-38.50L271.07-38.50L271.07-38.50Q273.54-37.57 274.24-35.58L274.24-35.58L274.24-35.58Q275.39-32.26 276.74-27.84L276.74-27.84L276.74-27.84Q278.08-23.42 279.42-18.72L279.42-18.72L279.42-18.72Q280.77-14.02 282.05-9.44L282.05-9.44L282.05-9.44Q283.33-4.86 284.29-1.34L284.29-1.34L284.29-1.34Q283.52-0.45 281.98 0.10L281.98 0.10L281.98 0.10Q280.45 0.64 278.34 0.64L278.34 0.64L278.34 0.64Q276.80 0.64 275.74 0.38L275.74 0.38L275.74 0.38Q274.69 0.13 274.02-0.38L274.02-0.38L274.02-0.38Q273.34-0.90 272.93-1.73L272.93-1.73L272.93-1.73Q272.51-2.56 272.19-3.65L272.19-3.65L271.04-8.06L259.46-8.06L259.46-8.06Q258.94-6.14 258.43-4.10L258.43-4.10L258.43-4.10Q257.92-2.05 257.41-0.13L257.41-0.13L257.41-0.13Q256.51 0.19 255.52 0.42L255.52 0.42L255.52 0.42Q254.53 0.64 253.12 0.64L253.12 0.64L253.12 0.64Q249.86 0.64 248.29-0.48L248.29-0.48L248.29-0.48Q246.72-1.60 246.72-3.58L246.72-3.58L246.72-3.58Q246.72-4.48 246.98-5.38L246.98-5.38L246.98-5.38Q247.23-6.27 247.55-7.49L247.55-7.49L247.55-7.49Q248.00-9.22 248.80-11.78L248.80-11.78L248.80-11.78Q249.60-14.34 250.56-17.31L250.56-17.31L250.56-17.31Q251.52-20.29 252.61-23.42L252.61-23.42L252.61-23.42Q253.70-26.56 254.66-29.34L254.66-29.34L254.66-29.34Q255.62-32.13 256.42-34.30L256.42-34.30L256.42-34.30Q257.22-36.48 257.66-37.63ZM265.73-29.38L265.34-29.38L265.34-29.38Q264.45-26.69 263.33-23.39L263.33-23.39L263.33-23.39Q262.21-20.10 261.31-16.70L261.31-16.70L269.25-16.70L269.25-16.70Q268.35-20.16 267.42-23.46L267.42-23.46L267.42-23.46Q266.50-26.75 265.73-29.38L265.73-29.38ZM288.83-7.55L288.83-41.66L288.83-41.66Q289.47-41.86 290.88-42.08L290.88-42.08L290.88-42.08Q292.29-42.30 293.76-42.30L293.76-42.30L293.76-42.30Q295.17-42.30 296.29-42.11L296.29-42.11L296.29-42.11Q297.41-41.92 298.18-41.34L298.18-41.34L298.18-41.34Q298.94-40.77 299.33-39.78L299.33-39.78L299.33-39.78Q299.71-38.78 299.71-37.18L299.71-37.18L299.71-30.91L299.71-30.91Q301.31-31.55 302.75-31.81L302.75-31.81L302.75-31.81Q304.19-32.06 305.92-32.06L305.92-32.06L305.92-32.06Q308.99-32.06 311.74-30.98L311.74-30.98L311.74-30.98Q314.50-29.89 316.61-27.81L316.61-27.81L316.61-27.81Q318.72-25.73 319.94-22.66L319.94-22.66L319.94-22.66Q321.15-19.58 321.15-15.55L321.15-15.55L321.15-15.55Q321.15-11.39 319.90-8.29L319.90-8.29L319.90-8.29Q318.66-5.18 316.42-3.14L316.42-3.14L316.42-3.14Q314.18-1.09 310.94-0.03L310.94-0.03L310.94-0.03Q307.71 1.02 303.81 1.02L303.81 1.02L303.81 1.02Q299.58 1.02 296.64 0.03L296.64 0.03L296.64 0.03Q293.70-0.96 291.65-2.43L291.65-2.43L291.65-2.43Q288.83-4.42 288.83-7.55L288.83-7.55ZM303.81-7.55L303.81-7.55L303.81-7.55Q306.75-7.55 308.38-9.57L308.38-9.57L308.38-9.57Q310.02-11.58 310.02-15.55L310.02-15.55L310.02-15.55Q310.02-19.58 308.35-21.57L308.35-21.57L308.35-21.57Q306.69-23.55 303.87-23.55L303.87-23.55L303.87-23.55Q302.59-23.55 301.66-23.30L301.66-23.30L301.66-23.30Q300.74-23.04 299.65-22.53L299.65-22.53L299.65-8.58L299.65-8.58Q300.35-8.13 301.34-7.84L301.34-7.84L301.34-7.84Q302.34-7.55 303.81-7.55ZM358.66-15.55L358.66-15.55L358.66-15.55Q358.66-11.58 357.44-8.48L357.44-8.48L357.44-8.48Q356.22-5.38 354.02-3.26L354.02-3.26L354.02-3.26Q351.81-1.15 348.74-0.06L348.74-0.06L348.74-0.06Q345.66 1.02 341.89 1.02L341.89 1.02L341.89 1.02Q338.11 1.02 335.04-0.13L335.04-0.13L335.04-0.13Q331.97-1.28 329.76-3.42L329.76-3.42L329.76-3.42Q327.55-5.57 326.34-8.64L326.34-8.64L326.34-8.64Q325.12-11.71 325.12-15.55L325.12-15.55L325.12-15.55Q325.12-19.33 326.34-22.40L326.34-22.40L326.34-22.40Q327.55-25.47 329.76-27.62L329.76-27.62L329.76-27.62Q331.97-29.76 335.04-30.91L335.04-30.91L335.04-30.91Q338.11-32.06 341.89-32.06L341.89-32.06L341.89-32.06Q345.66-32.06 348.74-30.88L348.74-30.88L348.74-30.88Q351.81-29.70 354.02-27.55L354.02-27.55L354.02-27.55Q356.22-25.41 357.44-22.34L357.44-22.34L357.44-22.34Q358.66-19.26 358.66-15.55ZM336.26-15.55L336.26-15.55L336.26-15.55Q336.26-11.65 337.76-9.57L337.76-9.57L337.76-9.57Q339.26-7.49 341.95-7.49L341.95-7.49L341.95-7.49Q344.64-7.49 346.08-9.60L346.08-9.60L346.08-9.60Q347.52-11.71 347.52-15.55L347.52-15.55L347.52-15.55Q347.52-19.39 346.05-21.47L346.05-21.47L346.05-21.47Q344.58-23.55 341.89-23.55L341.89-23.55L341.89-23.55Q339.20-23.55 337.73-21.47L337.73-21.47L337.73-21.47Q336.26-19.39 336.26-15.55ZM363.97-12.35L363.97-30.66L363.97-30.66Q364.61-30.85 365.98-31.04L365.98-31.04L365.98-31.04Q367.36-31.23 368.83-31.23L368.83-31.23L368.83-31.23Q370.24-31.23 371.36-31.04L371.36-31.04L371.36-31.04Q372.48-30.85 373.25-30.27L373.25-30.27L373.25-30.27Q374.02-29.70 374.43-28.70L374.43-28.70L374.43-28.70Q374.85-27.71 374.85-26.11L374.85-26.11L374.85-12.35L374.85-12.35Q374.85-9.73 376.13-8.61L376.13-8.61L376.13-8.61Q377.41-7.49 379.84-7.49L379.84-7.49L379.84-7.49Q381.31-7.49 382.24-7.74L382.24-7.74L382.24-7.74Q383.17-8 383.68-8.26L383.68-8.26L383.68-30.66L383.68-30.66Q384.32-30.85 385.70-31.04L385.70-31.04L385.70-31.04Q387.07-31.23 388.54-31.23L388.54-31.23L388.54-31.23Q389.95-31.23 391.07-31.04L391.07-31.04L391.07-31.04Q392.19-30.85 392.96-30.27L392.96-30.27L392.96-30.27Q393.73-29.70 394.14-28.70L394.14-28.70L394.14-28.70Q394.56-27.71 394.56-26.11L394.56-26.11L394.56-6.66L394.56-6.66Q394.56-3.46 391.87-1.86L391.87-1.86L391.87-1.86Q389.63-0.45 386.53 0.29L386.53 0.29L386.53 0.29Q383.42 1.02 379.78 1.02L379.78 1.02L379.78 1.02Q376.32 1.02 373.41 0.26L373.41 0.26L373.41 0.26Q370.50-0.51 368.38-2.11L368.38-2.11L368.38-2.11Q366.27-3.71 365.12-6.24L365.12-6.24L365.12-6.24Q363.97-8.77 363.97-12.35L363.97-12.35ZM399.87-15.55L399.87-15.55L399.87-15.55Q399.87-19.78 401.15-22.88L401.15-22.88L401.15-22.88Q402.43-25.98 404.70-28.03L404.70-28.03L404.70-28.03Q406.98-30.08 410.02-31.07L410.02-31.07L410.02-31.07Q413.06-32.06 416.58-32.06L416.58-32.06L416.58-32.06Q417.86-32.06 419.07-31.84L419.07-31.84L419.07-31.84Q420.29-31.62 421.06-31.30L421.06-31.30L421.06-41.66L421.06-41.66Q421.70-41.86 423.10-42.08L423.10-42.08L423.10-42.08Q424.51-42.30 425.98-42.30L425.98-42.30L425.98-42.30Q427.39-42.30 428.51-42.11L428.51-42.11L428.51-42.11Q429.63-41.92 430.40-41.34L430.40-41.34L430.40-41.34Q431.17-40.77 431.55-39.78L431.55-39.78L431.55-39.78Q431.94-38.78 431.94-37.18L431.94-37.18L431.94-6.85L431.94-6.85Q431.94-3.84 429.12-2.05L429.12-2.05L429.12-2.05Q427.26-0.83 424.32 0.10L424.32 0.10L424.32 0.10Q421.38 1.02 417.54 1.02L417.54 1.02L417.54 1.02Q413.38 1.02 410.08-0.13L410.08-0.13L410.08-0.13Q406.78-1.28 404.51-3.46L404.51-3.46L404.51-3.46Q402.24-5.63 401.06-8.67L401.06-8.67L401.06-8.67Q399.87-11.71 399.87-15.55ZM418.05-23.55L418.05-23.55L418.05-23.55Q414.59-23.55 412.74-21.57L412.74-21.57L412.74-21.57Q410.88-19.58 410.88-15.55L410.88-15.55L410.88-15.55Q410.88-11.58 412.61-9.57L412.61-9.57L412.61-9.57Q414.34-7.55 417.60-7.55L417.60-7.55L417.60-7.55Q418.75-7.55 419.68-7.90L419.68-7.90L419.68-7.90Q420.61-8.26 421.12-8.70L421.12-8.70L421.12-22.78L421.12-22.78Q419.84-23.55 418.05-23.55ZM436.80-5.18L436.80-5.18L436.80-5.18Q436.80-7.87 438.46-9.66L438.46-9.66L438.46-9.66Q440.13-11.46 443.01-11.46L443.01-11.46L443.01-11.46Q445.89-11.46 447.55-9.66L447.55-9.66L447.55-9.66Q449.22-7.87 449.22-5.18L449.22-5.18L449.22-5.18Q449.22-2.50 447.55-0.70L447.55-0.70L447.55-0.70Q445.89 1.09 443.01 1.09L443.01 1.09L443.01 1.09Q440.13 1.09 438.46-0.70L438.46-0.70L438.46-0.70Q436.80-2.50 436.80-5.18Z" fill="#052b4a"></path></g></g><style>text {
  font-size: 64px;
  font-family: Arial Black;
  dominant-baseline: central;
  text-anchor: middle;
}</style></svg>